#!OML:ASF G:\JayActor3\Patient Classification 1\Patient 1\Session 6\male.ASF
:FULLY-SPECIFIED
:DEGREES
4989
root -5.15751 16.3199 -2.96691 2688.86 -69.2687 -2688.93
lowerback -1.42074 -4.69086 -1.36424
upperback 5.51807 -6.50587 2.03416
thorax 6.94144 -3.42339 2.37239
lowerneck 12.3702 -18.1202 -9.66287
upperneck -1.99911 -25.3252 14.0675
head 0.504885 -13.1108 5.76542
rclavicle 6.13748e-015 -2.28602e-015
rhumerus -29.6461 -7.24595 -85.1342
rradius 34.4449
rwrist -4.556
rhand -27.6268 -10.1789
rfingers 7.12502
rthumb -1.02544 -40.1562
lclavicle 6.13748e-015 -2.28602e-015
lhumerus -34.0124 24.4111 74.1329
lradius 25.7139
lwrist 27.2031
lhand -14.9285 8.44237
lfingers 7.12502
lthumb 11.2337 38.1216
rfemur -14.4189 0.682773 28.545
rtibia 37.6265
rfoot -25.8282 -13.6868
rtoes 1.11306
lfemur -8.7237 14.4876 -12.8965
ltibia 34.265
lfoot -20.7575 4.28366
ltoes -7.11647
4990
root -5.15873 16.3179 -2.96245 2688.78 -69.0889 -2688.82
lowerback -1.48853 -4.72044 -1.5129
upperback 5.42862 -6.52522 1.96768
thorax 6.89502 -3.4344 2.38176
lowerneck 12.2639 -18.1001 -9.69768
upperneck -1.75431 -25.3283 13.9979
head 0.589097 -13.106 5.72427
rclavicle -9.26834e-015 -1.98785e-015
rhumerus -29.6989 -7.21985 -85.2155
rradius 34.3938
rwrist -4.61345
rhand -27.7059 -10.0327
rfingers 7.12502
rthumb -1.10183 -40.0096
lclavicle -9.26834e-015 -1.98785e-015
lhumerus -34.0393 24.412 74.0087
lradius 25.7854
lwrist 27.246
lhand -14.9416 8.42455
lfingers 7.12502
lthumb 11.221 38.1045
rfemur -14.4647 0.824227 28.6252
rtibia 37.6478
rfoot -25.7689 -13.7446
rtoes 1.11346
lfemur -8.60675 14.3699 -12.8715
ltibia 34.0953
lfoot -20.9365 4.55297
ltoes -6.94752
4991
root -5.16001 16.3158 -2.95778 2688.7 -68.9208 -2688.71
lowerback -1.55506 -4.75039 -1.65367
upperback 5.3432 -6.54592 1.90169
thorax 6.85155 -3.44578 2.38709
lowerneck 12.1637 -18.0839 -9.73096
upperneck -1.52863 -25.335 13.9427
head 0.668852 -13.1039 5.68834
rclavicle 4.06018e-014 5.56597e-015
rhumerus -29.7512 -7.20299 -85.2908
rradius 34.3538
rwrist -4.63958
rhand -27.7429 -9.96619
rfingers 7.12502
rthumb -1.13757 -39.9429
lclavicle 4.06018e-014 5.56597e-015
lhumerus -34.0457 24.4085 73.892
lradius 25.8427
lwrist 27.271
lhand -14.9487 8.39274
lfingers 7.12502
lthumb 11.2143 38.073
rfemur -14.5083 0.967111 28.7033
rtibia 37.6711
rfoot -25.7046 -13.8047
rtoes 1.1392
lfemur -8.49083 14.241 -12.8525
ltibia 33.9257
lfoot -21.1134 4.83148
ltoes -6.76352
4992
root -5.1613 16.3138 -2.95275 2688.6 -68.7664 -2688.58
lowerback -1.61877 -4.78387 -1.78497
upperback 5.26195 -6.57246 1.83764
thorax 6.81058 -3.45976 2.38878
lowerneck 12.0849 -18.0661 -9.7707
upperneck -1.33863 -25.3386 13.9168
head 0.739 -13.1023 5.66541
rclavicle 8.2769e-014 -1.0138e-014
rhumerus -29.7978 -7.19061 -85.3612
rradius 34.3197
rwrist -4.62698
rhand -27.7356 -9.97625
rfingers 7.12502
rthumb -1.13053 -39.953
lclavicle 8.2769e-014 -1.0138e-014
lhumerus -34.0329 24.4205 73.7724
lradius 25.8868
lwrist 27.2527
lhand -14.926 8.39623
lfingers 7.12502
lthumb 11.2362 38.0753
rfemur -14.5467 1.1037 28.7807
rtibia 37.6932
rfoot -25.6382 -13.8634
rtoes 1.18537
lfemur -8.37682 14.1005 -12.8373
ltibia 33.7578
lfoot -21.2856 5.11746
ltoes -6.55924
4993
root -5.1626 16.3118 -2.94742 2688.49 -68.625 -2688.46
lowerback -1.67577 -4.8207 -1.91293
upperback 5.18551 -6.60434 1.77516
thorax 6.77117 -3.47648 2.39014
lowerneck 12.0235 -18.0479 -9.80936
upperneck -1.18189 -25.3394 13.9106
head 0.798717 -13.1009 5.65157
rclavicle -2.98177e-014 1.37161e-014
rhumerus -29.8444 -7.17873 -85.4257
rradius 34.2937
rwrist -4.58804
rhand -27.6899 -10.0631
rfingers 7.12502
rthumb -1.08643 -40.04
lclavicle -2.98177e-014 1.37161e-014
lhumerus -34.0037 24.4422 73.6552
lradius 25.92
lwrist 27.2088
lhand -14.8849 8.41909
lfingers 7.12502
lthumb 11.2758 38.096
rfemur -14.5743 1.23873 28.8545
rtibia 37.7109
rfoot -25.5725 -13.9255
rtoes 1.2395
lfemur -8.26105 13.9499 -12.8275
ltibia 33.5934
lfoot -21.4566 5.40281
ltoes -6.31107
4994
root -5.16402 16.3099 -2.94179 2688.37 -68.4962 -2688.33
lowerback -1.72501 -4.8606 -2.03565
upperback 5.11274 -6.64144 1.71662
thorax 6.73159 -3.49582 2.39273
lowerneck 11.975 -18.0288 -9.84306
upperneck -1.04848 -25.3366 13.9086
head 0.849074 -13.0984 5.64142
rclavicle 4.57205e-014 3.97569e-016
rhumerus -29.8874 -7.16364 -85.4833
rradius 34.2591
rwrist -4.54156
rhand -27.6498 -10.1393
rfingers 7.12502
rthumb -1.04766 -40.1164
lclavicle 4.57205e-014 3.97569e-016
lhumerus -33.9593 24.4625 73.551
lradius 25.9451
lwrist 27.1702
lhand -14.8692 8.43661
lfingers 7.12502
lthumb 11.2909 38.1127
rfemur -14.5886 1.36688 28.9269
rtibia 37.7224
rfoot -25.5107 -13.9886
rtoes 1.29279
lfemur -8.14169 13.7894 -12.8191
ltibia 33.4322
lfoot -21.6264 5.68801
ltoes -6.03846
4995
root -5.16549 16.3082 -2.93589 2688.23 -68.3773 -2688.19
lowerback -1.76965 -4.90022 -2.14996
upperback 5.04377 -6.67927 1.66128
thorax 6.69299 -3.51536 2.39417
lowerneck 11.9303 -18.0099 -9.86504
upperneck -0.92363 -25.3312 13.8992
head 0.893668 -13.0946 5.62938
rclavicle -3.96078e-014 -3.57812e-015
rhumerus -29.9329 -7.15484 -85.533
rradius 34.2182
rwrist -4.49725
rhand -27.6215 -10.1745
rfingers 7.12502
rthumb -1.02034 -40.1518
lclavicle -3.96078e-014 -3.57812e-015
lhumerus -33.9017 24.4801 73.4563
lradius 25.9646
lwrist 27.1128
lhand -14.8459 8.46011
lfingers 7.12502
lthumb 11.3134 38.135
rfemur -14.5919 1.49113 29.0002
rtibia 37.7274
rfoot -25.4543 -14.0543
rtoes 1.33772
lfemur -8.02074 13.6215 -12.8092
ltibia 33.2739
lfoot -21.7927 5.96744
ltoes -5.74296
4996
root -5.16738 16.3067 -2.92973 2688.09 -68.2684 -2688.05
lowerback -1.80761 -4.93995 -2.25994
upperback 4.97804 -6.71814 1.60867
thorax 6.65404 -3.53543 2.3964
lowerneck 11.8783 -17.989 -9.87588
upperneck -0.785831 -25.3218 13.8683
head 0.938583 -13.0878 5.60946
rclavicle -2.9271e-014 -4.37326e-015
rhumerus -29.983 -7.15276 -85.5724
rradius 34.1693
rwrist -4.45621
rhand -27.6028 -10.1846
rfingers 7.12502
rthumb -1.00231 -40.162
lclavicle -2.9271e-014 -4.37326e-015
lhumerus -33.8317 24.49 73.3783
lradius 25.978
lwrist 27.0648
lhand -14.8432 8.47721
lfingers 7.12502
lthumb 11.3159 38.1519
rfemur -14.5782 1.60221 29.0682
rtibia 37.7266
rfoot -25.4038 -14.1146
rtoes 1.36159
lfemur -7.8896 13.444 -12.8006
ltibia 33.1172
lfoot -21.9554 6.239
ltoes -5.44475
4997
root -5.1694 16.3053 -2.92331 2687.95 -68.1666 -2687.92
lowerback -1.83835 -4.97694 -2.36706
upperback 4.9132 -6.75388 1.55703
thorax 6.61153 -3.55388 2.39898
lowerneck 11.8089 -17.9668 -9.87346
upperneck -0.616959 -25.3103 13.8104
head 0.990015 -13.0783 5.57777
rclavicle -4.55714e-014 4.37326e-015
rhumerus -30.0361 -7.16135 -85.6029
rradius 34.1068
rwrist -4.42065
rhand -27.5975 -10.1464
rfingers 7.12502
rthumb -0.997171 -40.1238
lclavicle -4.55714e-014 4.37326e-015
lhumerus -33.7545 24.4998 73.3058
lradius 25.9896
lwrist 26.9812
lhand -14.8121 8.51808
lfingers 7.12502
lthumb 11.346 38.1912
rfemur -14.554 1.7074 29.129
rtibia 37.7205
rfoot -25.3606 -14.167
rtoes 1.38684
lfemur -7.75344 13.2582 -12.7964
ltibia 32.963
lfoot -22.1155 6.50221
ltoes -5.14526
4998
root -5.17171 16.3041 -2.9166 2687.8 -68.0684 -2687.79
lowerback -1.86686 -5.00997 -2.46266
upperback 4.84894 -6.78508 1.50515
thorax 6.5667 -3.5695 2.39562
lowerneck 11.7215 -17.9413 -9.86795
upperneck -0.408802 -25.2969 13.7347
head 1.05302 -13.0666 5.53714
rclavicle 4.28878e-014 3.97569e-016
rhumerus -30.093 -7.18707 -85.6264
rradius 34.0378
rwrist -4.37949
rhand -27.5839 -10.1302
rfingers 7.12502
rthumb -0.984025 -40.1077
lclavicle 4.28878e-014 3.97569e-016
lhumerus -33.6659 24.5132 73.2331
lradius 25.9934
lwrist 26.8507
lhand -14.7388 8.6007
lfingers 7.12502
lthumb 11.4167 38.2699
rfemur -14.5212 1.80443 29.1866
rtibia 37.7088
rfoot -25.3199 -14.2117
rtoes 1.41326
lfemur -7.61503 13.067 -12.792
ltibia 32.8134
lfoot -22.2677 6.75881
ltoes -4.87449
